<svg xmlns="http://www.w3.org/2000/svg" viewBox="0 0 100 100">
  <defs>
    <linearGradient id="bg" x1="0%" y1="0%" x2="100%" y2="100%">
      <stop offset="0%" stop-color="#e8f8ff"/>
      <stop offset="100%" stop-color="#d0f0fc"/>
    </linearGradient>
  </defs>
  <rect width="100" height="100" rx="22" fill="url(#bg)" stroke="#b8e0f0" stroke-width="2"/>
  <ellipse cx="50" cy="44" rx="26" ry="22" fill="#fff" stroke="#333" stroke-width="2"/>
  <path d="M28 30 L24 14 L40 24 Z" fill="#fff" stroke="#333" stroke-width="2" stroke-linejoin="round"/>
  <path d="M72 30 L76 14 L60 24 Z" fill="#fff" stroke="#333" stroke-width="2" stroke-linejoin="round"/>
  <ellipse cx="40" cy="45" rx="3" ry="4" fill="#333"/>
  <ellipse cx="60" cy="45" rx="3" ry="4" fill="#333"/>
  <ellipse cx="50" cy="51" rx="3" ry="2" fill="#ffce8a"/>
  <line x1="22" y1="43" x2="32" y2="45" stroke="#333" stroke-width="2"/>
  <line x1="22" y1="49" x2="32" y2="49" stroke="#333" stroke-width="2"/>
  <line x1="78" y1="43" x2="68" y2="45" stroke="#333" stroke-width="2"/>
  <line x1="78" y1="49" x2="68" y2="49" stroke="#333" stroke-width="2"/>
  <!-- flower -->
  <circle cx="50" cy="70" r="5" fill="#ffd93d"/>
  <ellipse cx="50" cy="62" rx="4" ry="5" fill="#ff8fb1"/>
  <ellipse cx="58" cy="70" rx="5" ry="4" fill="#ff8fb1"/>
  <ellipse cx="50" cy="78" rx="4" ry="5" fill="#ff8fb1"/>
  <ellipse cx="42" cy="70" rx="5" ry="4" fill="#ff8fb1"/>
  <!-- bow -->
  <ellipse cx="66" cy="26" rx="6" ry="4" fill="#ff8fb1" stroke="#e07098" stroke-width="1"/>
  <circle cx="66" cy="26" r="2.5" fill="#ff8fb1" stroke="#e07098" stroke-width="1"/>
</svg>